<?xml version="1.0" encoding="UTF-8"?>
<svg width="1592px" height="1076px" viewBox="0 0 1592 1076" version="1.1" xmlns="http://www.w3.org/2000/svg" xmlns:xlink="http://www.w3.org/1999/xlink">
    <!-- Generator: Sketch 57.1 (83088) - https://sketch.com -->
    <title>Group</title>
    <desc>Created with Sketch.</desc>
    <g id="system" stroke="none" stroke-width="1" fill="none" fill-rule="evenodd">
        <g id="r" transform="translate(-201.000000, -200.000000)">
            <g id="Group" transform="translate(201.000000, 200.000000)">
                <rect id="Rectangle" fill="#264AC0" x="0" y="0" width="1592" height="1076"></rect>
                <g id="logo" transform="translate(443.000000, 411.000000)" fill="#FFFFFF">
                    <path d="M467.655433,204.945448 C465.799848,207.606033 464.878849,211.09258 464.878849,215.595462 C464.878849,225.410301 468.395252,230.320024 475.264996,230.320024 C478.417529,230.320024 481.017462,228.896849 482.868519,226.448129 C484.718065,223.990197 485.645103,220.291785 485.645103,215.595462 C485.645103,205.961782 482.12568,201.266995 475.264996,201.266995 C472.112463,201.266995 469.507999,202.492122 467.655433,204.945448 M448.554526,197.373606 L444.286226,204.945448 C441.868982,202.492122 438.720979,201.471183 434.632349,201.471183 C430.730938,201.471183 427.758076,202.69631 425.550699,205.35843 C423.323694,208.019014 422.198868,211.496351 422.198868,216.197279 C422.198868,225.410301 426.467168,230.128118 435.187968,230.128118 C439.087868,230.128118 442.429131,228.688055 445.208735,226.243941 L448.918396,234.412994 C445.948553,236.258362 443.353149,237.500378 441.142752,237.899542 C439.087868,238.512106 436.294676,238.707082 433.323323,238.707082 C426.651367,238.707082 421.282399,236.680555 417.390047,232.790237 C413.485617,228.688055 411.634561,223.161163 411.634561,216.197279 C411.634561,209.256424 413.677366,203.52995 417.924528,199.413951 C422.198868,195.121398 428.138554,193.079518 435.376697,193.079518 C440.576564,193.079518 444.841845,194.51344 448.554526,197.373606 M490.657751,199.215904 C494.362883,202.90971 496.230548,208.625437 496.230548,215.595462 C496.230548,222.745111 494.362883,228.275074 490.473551,232.368044 C486.7654,236.680555 481.740673,238.707082 475.264996,238.707082 C468.583981,238.707082 463.382604,236.680555 459.863181,232.368044 C456.1505,228.275074 454.297934,222.562417 454.297934,215.595462 C454.297934,208.838837 456.1505,203.52995 460.042851,199.413951 C463.938223,195.121398 468.950871,193.079518 475.264996,193.079518 C481.936951,193.079518 486.94507,195.121398 490.657751,199.215904 M542.792312,194.309252 C545.016297,193.480218 547.244812,193.079518 549.648467,193.079518 C554.485974,193.079518 558.189597,194.51344 560.97373,197.170954 C563.563095,200.048008 565.054811,203.720321 565.054811,208.625437 L565.054811,237.899542 L554.845315,237.899542 L554.845315,210.059359 C554.845315,204.340561 552.25746,201.471183 547.051553,201.471183 C545.573426,201.471183 544.092279,201.881094 542.603583,202.90971 C541.303616,203.720321 540.379597,204.748937 539.63072,205.961782 L539.63072,237.899542 L529.614482,237.899542 L529.614482,208.625437 C529.614482,206.377835 528.874664,204.541678 527.585266,203.31655 C526.286809,202.080676 524.413105,201.471183 522.018509,201.471183 C520.709483,201.471183 519.232865,201.881094 517.73662,202.90971 C516.273591,203.916832 515.148765,204.945448 514.408946,205.961782 L514.408946,237.899542 L504.391199,237.899542 L504.391199,193.905482 L511.265472,193.905482 L513.477379,197.786588 C516.273591,194.51344 519.782445,193.079518 524.413105,193.079518 C530.162552,193.079518 534.439911,194.72991 537.420323,197.786588 C538.703682,196.34499 540.379597,195.121398 542.792312,194.309252 M372.48608,221.125425 C372.48608,214.161541 377.492689,208.625437 383.610536,208.625437 C389.559281,208.625437 394.571929,214.161541 394.571929,221.125425 C394.571929,227.868233 389.559281,233.388984 383.610536,233.388984 C377.492689,233.388984 372.48608,227.868233 372.48608,221.125425 M359.5,195.319445 L359.5,236.880137 C359.5,242.202841 363.58863,246.5 368.40047,246.5 L578.60104,246.5 C583.4159,246.5 587.5,242.202841 587.5,236.880137 L587.5,195.319445 C587.5,190.02284 583.4159,185.5 578.60104,185.5 L368.40047,185.5 C363.58863,185.5 359.5,190.02284 359.5,195.319445" id="Fill-1"></path>
                    <path d="M682.570542,146.891589 C681.425217,150.369311 680.284456,153.860507 678.920105,157.263376 C678.77713,157.628664 677.37019,161.317475 677.155727,161.284539 C677.044693,161.256094 676.923012,161.226153 676.813499,161.202199 C675.006533,160.820443 673.187399,160.443179 671.384995,160.065914 C664.169299,158.561346 656.96425,157.031328 649.750075,155.529754 C643.364852,154.186871 636.976588,152.84848 630.589845,151.513082 C630.422534,148.084763 630.422534,144.669919 630.2826,141.2416 C630.122894,137.754895 630.620266,134.29364 630.58224,130.815918 C641.8773,133.34449 653.169317,135.885039 664.465897,138.40912 C670.925649,139.865781 677.396048,141.323939 683.855799,142.762636 C683.410142,144.126478 682.981216,145.506788 682.570542,146.891589 M633.146672,105.085563 C634.704192,97.6555428 635.898189,90.173125 637.703634,82.7984971 C638.605596,79.0977094 639.734189,75.4822554 640.925144,71.8757839 C641.191322,71.0374177 643.802905,62.7136396 644.072125,62.7720258 C649.316585,63.9367559 654.541273,65.1104685 659.790296,66.2662161 C666.285031,67.7094035 672.79954,69.1570822 679.303401,70.6032638 L632.548913,109.503453 C632.742082,108.024336 632.944377,106.548212 633.146672,105.085563 M652.650651,43.3713349 C656.15507,37.4563624 659.6169,31.6192381 664.646898,26.8225861 C668.537655,23.1217984 674.56848,19.2039337 679.741453,22.9765814 C684.172171,26.2012969 686.59819,32.1462111 688.310853,37.0835888 C690.607586,43.6378156 691.921743,50.8297995 692.554486,57.7148814 C678.47749,54.3988439 664.33509,51.3522812 650.224631,48.1889461 C651.035332,46.5810796 651.85516,44.9762073 652.650651,43.3713349 M645.053179,117.292773 L693.517288,74.3594436 C693.593339,83.1098902 693.322598,91.8738106 692.324812,100.562877 C691.323984,109.317815 689.726918,118.035326 687.898658,126.649538 C676.084933,124.067071 664.280333,121.49658 652.474213,118.909622 C650.002563,118.379654 647.521787,117.836214 645.053179,117.292773 M680.065429,0.9589905 C669.371171,-1.27914769 660.270937,4.98464508 653.910051,12.8697781 C646.578758,21.9450916 641.717593,33.0040393 637.767516,43.8279451 C632.524577,58.1879595 628.830031,73.1527951 625.965959,88.13859 C623.018232,103.542071 621.194534,119.162629 620.672826,134.837081 C620.411211,142.568015 620.423379,150.345358 620.870558,158.067309 C621.097189,161.893852 621.463754,165.70692 622.018924,169.503521 C622.285102,171.316488 622.599952,173.123467 622.975643,174.919966 C623.149039,175.818215 623.342208,176.71347 623.561234,177.60124 C623.758966,177.803346 624.610734,177.526386 624.82824,177.472491 C631.634783,176.042777 639.004102,175.710425 645.955141,176.179012 C653.417242,176.673049 660.321131,178.911187 666.811303,182.562571 C668.377948,183.441359 669.915695,184.378532 671.40629,185.374092 C672.177444,185.901065 672.93491,186.435523 673.675644,186.981958 C674.363143,187.46851 674.901583,188.130221 675.651443,188.5 C677.618116,185.427987 679.367283,182.260161 680.958265,178.989036 C684.158481,172.448282 686.716829,165.624581 689.048546,158.742493 C694.002492,144.246244 697.779173,129.398181 700.428782,114.325555 C703.133147,99.004414 704.867104,83.4826637 705.359913,67.9459425 C705.794923,54.7476641 705.344703,41.2409867 702.168823,28.366078 C699.312356,16.6873382 693.185707,3.71212504 680.065429,0.9589905" id="Fill-3"></path>
                    <path d="M109.5,176.5 L15.2567891,176.5 C11.1964581,176.5 7.68851217,175.12 4.7419577,172.336129 C1.97102567,169.543307 0.5,166.358118 0.5,162.785036 C0.5,158.789749 2.16315963,153.629294 5.66360031,147.073921 L73.165666,17.9954184 L37.7574777,17.9954184 C28.7196761,17.9954184 22.4438003,19.5857753 19.1309904,22.5770189 C15.8061722,25.5548355 13.9658891,31.51942 13.7797593,40.864632 L2.5324171,40.864632 L2.5324171,0.5 L87.0008125,0.5 C99.7281866,0.5 106.181186,5.67238982 106.181186,15.8097965 C106.181186,18.7920887 105.267049,22.3696459 103.227126,26.1501004 L33.5140189,159.198528 L109.5,159.198528 L109.5,176.5 Z" id="Fill-6"></path>
                    <path d="M174.519881,146.419884 L174.519881,122.403356 C155.231718,123.572805 145.503217,130.670711 145.503217,144.052931 C145.503217,154.675427 149.177366,160.18306 156.528653,160.18306 C164.41485,160.18306 170.289903,155.475732 174.519881,146.419884 L174.519881,146.419884 Z M201.5,161.572519 L188.647202,161.572519 C183.148678,161.572519 178.558606,162.933923 175.062263,165.90332 C168.088999,171.221951 164.603115,174.178059 164.232562,174.374443 C159.824779,177.125307 154.687843,178.5 148.995078,178.5 C139.817923,178.5 132.108037,175.543892 125.866914,169.63906 C119.619814,163.740134 116.5,156.65404 116.5,148.374872 C116.5,124.173772 135.957003,110.983508 174.519881,109.021136 L174.519881,97.994058 C174.519881,87.3759913 173.774293,79.6963133 171.942448,74.9550239 C170.289903,70.2314535 167.176065,67.8807426 162.947581,67.8807426 C158.728062,67.8807426 155.783065,69.8519731 154.507049,74.1783443 C154.323267,74.3732525 153.586644,78.9004382 152.301663,87.3759913 C151.012199,95.8234895 145.87377,100.361011 136.509844,100.361011 L121.642912,85.1965634 C122.007488,75.9561433 125.866914,68.4772798 133.201765,62.954881 C140.741316,57.2508633 150.649118,54.5 163.131363,54.5 C177.089843,54.5 186.99615,58.0364024 192.869709,64.7371097 C198.562474,71.6179595 201.5,83.2223797 201.5,99.3761342 L201.5,161.572519 Z" id="Fill-8"></path>
                    <path d="M242.783994,126.185007 C242.783994,150.460354 249.355364,162.412834 262.313915,162.412834 C274.902604,162.412834 281.114509,147.086538 281.114509,116.611673 C281.114509,87.3644649 275.09422,72.6176471 262.854598,72.6176471 C254.646327,72.6176471 247.893739,80.7855979 242.783994,97.3037066 L242.783994,126.185007 Z M216.5,76.2035403 L219.972844,76.2035403 C221.609745,76.4096433 222.707449,76.4096433 223.258529,76.4096433 C230.737473,76.4096433 235.668971,75.4089983 238.416945,73.4166695 C242.969668,69.2303893 247.711036,65.0575507 252.639564,60.678609 C257.930526,56.4938223 263.955272,54.5 270.704889,54.5 C282.940055,54.5 292.611436,59.8840671 299.724974,71.0210957 C306.837026,82.1745528 310.5,97.5098096 310.5,117.219528 C310.5,137.5371 306.663235,153.260667 299.17835,164.414124 C291.69495,175.361478 281.114509,180.926258 267.607849,180.926258 C257.383902,180.926258 249.166719,176.742965 242.783994,168.591443 L242.783994,215.966753 C242.783994,220.148552 241.509529,223.544771 239.132903,226.331642 C236.583972,229.118513 233.479505,230.5 229.831384,230.5 C225.993134,230.5 222.887181,229.118513 220.33528,226.137487 C217.780407,223.346136 216.5,219.954397 216.5,215.966753 L216.5,76.2035403 Z" id="Fill-10"></path>
                    <path d="M348.888006,126.185007 C348.888006,150.460354 355.305299,162.412834 368.48588,162.412834 C381.132556,162.412834 387.361939,147.086538 387.361939,116.611673 C387.361939,87.3644649 381.132556,72.6176471 368.858718,72.6176471 C360.620482,72.6176471 354.021244,80.7855979 348.888006,97.3037066 L348.888006,126.185007 Z M322.5,76.2035403 L325.974853,76.2035403 C327.446819,76.4096433 328.542964,76.4096433 329.279692,76.4096433 C336.790148,76.4096433 341.738458,75.4089983 344.490005,73.4166695 C349.061003,69.2303893 353.839299,65.0575507 358.592242,60.678609 C364.096827,56.4938223 370.145756,54.5 376.907552,54.5 C389.01585,54.5 398.730525,59.8840671 405.880073,71.0210957 C413.023655,82.1745528 416.5,97.5098096 416.5,117.219528 C416.5,137.5371 412.832762,153.260667 405.322307,164.414124 C397.628415,175.361478 387.361939,180.926258 373.812994,180.926258 C363.540552,180.926258 355.305299,176.742965 348.888006,168.591443 L348.888006,215.966753 C348.888006,220.148552 347.608425,223.544771 345.03584,226.331642 C342.654149,229.118513 339.540203,230.5 335.699968,230.5 C332.026765,230.5 328.912819,229.118513 326.3462,226.137487 C323.784055,223.346136 322.5,219.954397 322.5,215.966753 L322.5,76.2035403 Z" id="Fill-12"></path>
                    <path d="M491.02235,127.527079 C491.02235,109.205709 490.467335,96.9973684 489.548793,91.501548 C487.161181,75.9576199 481.274433,68.0786039 472.274515,68.0786039 C465.28073,68.0786039 460.322996,72.010729 457.381866,80.0787468 C454.440736,87.9577627 452.967178,100.362488 452.967178,117.481924 C452.967178,134.003346 454.440736,145.827776 457.02133,153.105825 C459.953484,160.987794 464.903738,164.925826 472.087516,164.925826 C484.580587,164.925826 491.02235,152.52553 491.02235,127.527079 M517.5,117.481924 C517.5,158.036117 502.231855,178.5 472.087516,178.5 C441.756177,178.5 426.5,158.036117 426.5,117.481924 C426.5,75.5559909 441.756177,54.5 472.087516,54.5 C486.04816,54.5 497.087121,60.0105861 505.359985,71.217807 C513.432384,82.2448856 517.5,97.7991498 517.5,117.481924" id="Fill-14"></path>
                    <path d="M583.193158,85.2974243 C583.193158,74.8375584 577.44135,69.7016916 565.9498,69.7016916 C556.133723,69.7016916 551.325972,73.6480282 551.325972,81.9421494 C551.325972,87.0824602 556.509234,92.7990192 566.877267,99.5229013 C572.072594,102.681156 578.190865,106.824513 585.230571,111.55745 C594.680184,120.458928 599.5,131.127666 599.5,143.163696 C599.5,153.623562 595.971099,162.310243 588.934409,168.840067 C581.894703,175.349152 572.814568,178.5 561.516052,178.5 C551.500909,178.5 543.354274,176.740147 537.065591,172.974536 C530.755795,169.226701 527.410879,164.492283 527.410879,159.163839 C527.410879,155.80412 529.820787,154.217586 534.640602,154.217586 C535.942073,154.217586 537.232988,154.217586 538.160455,154.414607 C545.568132,159.762308 552.432901,162.51467 558.726108,162.51467 C569.294716,162.51467 574.666488,158.372794 574.666488,150.066822 C574.666488,145.520536 572.627567,141.587532 568.552741,137.826365 C566.877267,136.054661 561.516052,132.300901 552.432901,126.176968 C543.354274,120.060443 536.869541,114.523128 533.156654,109.596133 C528.706317,103.861798 526.5,97.1349529 526.5,89.4437443 C526.5,78.3898539 529.997232,69.9031562 537.232988,63.7747799 C544.272693,57.6508476 554.283312,54.5 567.445813,54.5 C573.362001,54.5 581.894703,56.0672763 592.826757,59.2462697 L592.826757,85.2974243 L583.193158,85.2974243 Z" id="Fill-16"></path>
                    <path d="M638.22273,252.250319 C623.179514,250.177742 612.676916,235.60092 614.764352,219.738673 C616.839894,203.845856 630.713016,192.665249 645.747312,194.750054 C660.803909,196.837916 671.30948,211.379583 669.239886,227.251001 C667.161371,243.15146 653.282301,254.333596 638.22273,252.250319 Z" id="Fill-18"></path>
                </g>
            </g>
        </g>
    </g>
</svg>